<svg version="1.2" xmlns="http://www.w3.org/2000/svg" viewBox="0 0 500 500" width="1500" height="1500">
	<title>Black Outline Street Brand Modern Typography Logo (1)</title>
	<style>
		.s0 { fill: #ecdd79 } 
		.s1 { fill: #2c3157 } 
	</style>
	<g id="Background">
		<path id="Path 0" class="s0" d="m0 250v250h500v-500h-500z"/>
		<path id="Path 1" fill-rule="evenodd" class="s1" d="m268.5 157c3.9 0 9.3 0.7 12 1.5 2.8 0.9 7.5 3.5 10.5 5.9 3.7 2.8 6.5 6.1 8.7 10.2 1.7 3.2 3.4 7.7 4.4 13.9l-1.8-3.1c-1-1.7-2.7-4.2-3.8-5.6-1.1-1.3-3.8-3.8-6-5.4-2.2-1.6-6.7-3.5-10-4.3-3.6-0.8-7.8-1.1-10.5-0.7-2.5 0.4-6.5 1.6-9 2.8-3.2 1.4-11.5 8.9-28 25.1-18.5 18.2-24.7 23.6-29 25.6-4.8 2.3-6.8 2.6-15.5 2.6-8.1-0.1-10.9-0.5-14.8-2.3-2.6-1.2-6.9-4.3-9.5-7-2.6-2.6-5.8-6.7-7-9.2-1.2-2.5-2.5-6.3-3.4-12.5l3 5c1.6 2.7 4.9 6.4 7.3 8.1 2.4 1.8 6.9 4 9.9 4.9q5.5 1.8 10.5 1.3c2.8-0.3 7.3-1.5 10-2.7 3.9-1.7 10.1-7.3 27.5-24.5 12.4-12.2 23.8-23.2 25.5-24.3 1.7-1.1 5-2.8 7.5-3.6 2.5-0.9 7.6-1.6 11.5-1.7zm-78.3 0c5.5 0 9.5 0.6 13.5 2.1 4.6 1.7 7.7 4.1 23.3 19.4l-10.5 10.5-7-7c-3.8-3.8-8.7-7.6-10.8-8.5-2-0.8-5.8-1.5-8.5-1.5-3 0-6.3 0.8-9.2 2.3-2.8 1.5-5.5 4-7.3 6.8-2.1 3.4-2.8 5.7-2.8 9.9-0.1 3 0.6 6.8 1.4 8.5 0.8 1.7 3 4.5 4.8 6.3 2.6 2.5 3 3.2 1.6 3.2-0.9 0-3.8-1-6.4-2.3-2.5-1.2-5.9-3.7-7.5-5.5-1.5-1.7-3.5-4.9-4.4-7-0.9-2-1.6-6.4-1.6-9.7 0-3.8 0.6-7.3 1.7-9.5 1-1.9 3.2-5.2 4.9-7.4 1.9-2.3 5.7-5.1 10-7.2 6.1-3 7.9-3.4 14.8-3.4zm87.3 15.8l3.5 0.7c1.9 0.4 5.1 1.5 7 2.5 1.9 0.9 4.8 3.3 6.4 5.1 1.6 1.9 3.8 5.4 4.9 7.9 1.5 3.4 1.8 6 1.5 10.5-0.2 3.3-1.3 7.8-2.4 10-1 2.2-3.4 5.4-5.2 7.2-1.7 1.8-5.6 4.5-8.5 6-4.7 2.5-6.2 2.8-15.7 2.8-8.8 0-11.2-0.4-15-2.2-2.5-1.2-8.3-5.8-21.5-18.1l4.8-5.1c2.7-2.8 5.4-5.1 6-5.1 0.7 0 4.4 3.2 8.2 7 5.7 5.8 8 7.3 12.3 8.5 4.5 1.3 5.9 1.3 10.4 0 3-0.8 6.6-2.7 8.3-4.3 1.6-1.6 3.8-4.5 4.7-6.5 1-2 1.8-5.8 1.8-8.5 0-2.9-0.9-6.4-2.3-9.1-1.2-2.5-3.8-5.5-5.7-6.9zm-65.8 61.8c0.7 0.2 2 0.4 2.8 0.4 0.8 0 2.6 1.1 4 2.5 1.7 1.7 2.5 3.6 2.5 6 0 2.6-0.8 4.3-3.3 6.7-2.8 2.7-3.7 3.1-6.7 2.5-1.9-0.3-4.5-1.8-5.8-3.2-1.3-1.5-2.2-3.8-2.2-5.7 0-1.8 0.7-4.3 1.6-5.6 0.9-1.3 2.6-2.7 3.8-3.2 1.1-0.5 2.7-0.7 3.3-0.4zm-59.2 3.4c5.2 0 6.7 0.4 7.3 1.8 0.5 0.9 2.7 7.7 4.8 15 2.1 7.3 4.1 13.2 4.4 13.2 0.3 0 3.9-6.8 8-15.1 7.5-15 7.5-15 10.5-14.5 1.7 0.4 4.1 0.6 5.5 0.6 1.4 0 3.2 0.5 4 1 1.2 0.7 1.8 4.9 2.7 17.7 0.6 9.3 1.5 20 2.7 30.8l0.7-5.5c0.4-3 0.7-9.1 0.9-21.5l7.2-0.6c4-0.4 7.5-0.5 7.8-0.2 0.3 0.3 0.8 3.7 1.2 7.6 0.4 4 0.7 11.3 0.8 25.2l-18.6 1c-10.2 0.6-18.6 0.9-18.7 0.8-0.1-0.1 0.4-6.8 1.1-15 0.6-8.1 1.1-15.2 1-15.6-0.2-0.5-2.7 4.9-10.8 24.8l-7.3 0.7c-3.9 0.3-7.5 0.3-7.8 0-0.3-0.4-1.9-6.4-3.5-13.5-1.6-7-3.1-12.7-3.4-12.7-0.3 0-1.6 6.3-5.5 28l-4-0.1c-2.2 0-5.8-0.3-12.1-1.4l6.6-24.5c3.6-13.5 6.9-25.3 7.3-26.2 0.5-1.5 1.9-1.8 7.2-1.8zm73.9 3.9l6.5 0.7c3.6 0.3 6.7 0.7 6.8 0.8 0.1 0 0.5 8 0.8 17.6 0.3 9.6 0.8 20.7 1.7 31.5l-4.9 0.8c-2.6 0.4-6.8 0.7-13.8 0.7l0.8-22.7c0.4-12.6 1-24.3 1.4-26.1zm59.5 0.7c3.6 0.4 6.7 0.7 6.7 0.8 0.1 0.1 0.4 11.1 1.4 49.1l-4.7 0.8c-2.6 0.4-6.5 0.7-8.5 0.7-3.7 0-3.8 0-4.4-4.7-0.4-2.6-0.2-14 0.5-25.2 0.6-11.2 1.4-20.8 1.7-21.2 0.3-0.5 3.6-0.6 7.3-0.3zm-21.6 17c2 0.2 4.9 1.2 6.3 2.2 1.4 0.9 3 3.2 3.5 5 0.7 2.4 0.5 4.1-0.6 6.7-1 2.5-2.7 4.1-5.7 5.5-2.4 1.1-5.6 2-10.3 2.1l2.5 1c1.5 0.6 4.5 0.6 7.3 0.2 2.6-0.4 4.7-0.6 4.8-0.3 0 0.3 0.3 2.4 0.7 4.7 0.7 4.1 0.6 4.3-2.3 5.3-1.6 0.6-5.6 1-8.7 1-3.2 0-7.2-0.6-9-1.3-1.8-0.8-4.2-2.5-5.4-3.8-1.2-1.3-2.7-4.2-3.2-6.4-0.7-2.6-0.8-5.4-0.2-8 0.5-2.2 1.8-5.1 2.9-6.5 1-1.4 2.9-3.3 4.2-4.3 1.4-1 4-2.2 5.9-2.7 2-0.5 5.2-0.7 7.3-0.4zm50.5-0.5c1.2 0 3.8 0.6 5.7 1.4 2.1 0.9 4.2 2.8 5.1 4.8 1 2 1.4 4.4 1.1 6.2-0.4 1.7-1.8 4.1-3.2 5.5-1.7 1.6-4.8 2.9-8.3 3.6-5.2 1-5.4 1.2-2.7 1.8 1.7 0.4 4.9 0.2 7.3-0.3 3.7-0.9 4.3-0.9 4.7 0.7 0.2 0.9 0.6 3.2 1 5 0.5 3 0.3 3.3-2.7 4.2-1.8 0.6-6 1.1-9.3 1-3.9 0-7.2-0.6-9.5-1.8-1.9-1-4.5-3.4-5.8-5.3-1.5-2.4-2.2-4.8-2.2-8.1 0-2.6 0.8-6.4 1.8-8.5 0.9-2 3.1-4.6 4.7-5.9 1.7-1.2 4.6-2.7 6.5-3.2 2-0.5 4.5-1 5.8-1.1zm-97.6 46.5c0.6 0.3 1 2.1 0.9 4-0.1 3.2 0.1 3.4 2.7 3.2 2.4-0.2 2.7-0.7 2.8-4 0.1-2.2 0.6-3.8 1.3-3.8 0.8 0 1.1 2.7 1.1 8.5 0 6.9-0.3 8.5-1.5 8.5-1 0-1.5-1-1.5-3.5 0-3-0.3-3.5-2.5-3.5-2.1 0-2.6 0.6-3 3.5-0.2 1.9-0.9 3.5-1.5 3.5-0.5 0-1-3.4-1.1-7.8-0.1-4.3 0.1-8.1 0.6-8.5 0.4-0.3 1.2-0.4 1.7-0.1zm29.9 0.4c0.5 0 0.9 1.6 0.9 3.5 0 1.9 0.5 3.5 1 3.5 0.6 0 1.3-1 1.6-2.2 0.5-1.9 0.7-2 1-0.5 0.3 1.2 1.2 1.6 3.2 1.5 2-0.2 2.8-0.9 3-2.5 0.1-1.3 0.7-2.3 1.2-2.3 0.6 0 1 1.3 1 2.8 0 2.3 0.5 2.7 2.8 2.7 2.6 0 2.7 0.3 3 5.3 0.1 3-0.2 5.2-0.8 5.2-0.5 0-1.1-1.9-1.2-4.2-0.2-3-0.7-4.3-1.8-4.3-1 0-1.6 1.3-1.8 4-0.3 4-0.3 4-4.3 4-2.9 0-4.3-0.5-5-1.7-0.5-1-0.9-2.9-0.9-4.3 0-1.4-0.4-2.5-1-2.5-0.5 0-1 2-1 4.5 0 2.5-0.4 4.5-1 4.5-0.5 0-1.3-0.5-1.6-1.2-0.3-0.7-0.3-4.5 0.1-8.5 0.4-4 1.1-7.3 1.6-7.3zm-15.6 6c1.1 0 2.6 0.6 3.2 1.3 0.9 0.8 0.9 1.8 0.3 3-0.5 0.9-1.9 1.7-3 1.7-1.1 0-1.8 0.6-1.6 1.3 0.2 0.7 1.4 1.2 2.7 1.3q2.4 0 3-2c0.3-1.4 1.5-2.2 3.2-2.3 1.5-0.2 2.7-0.7 2.7-1.3 0-0.5-0.9-1-2-1-1.1 0-2.2-0.4-2.5-1-0.3-0.6 0.9-0.9 2.8-0.7 3.2 0.2 3.2 0.3 3.5 5.5 0.2 5.2 0.2 5.2-2.8 5.2-1.6 0-3.2-0.4-3.5-1-0.3-0.6-1.4-0.5-3 0.3-2 1-3 1-5 0-1.8-0.9-2.5-2.2-2.7-4.6-0.1-1.8 0.5-3.8 1.2-4.5 0.8-0.6 2.4-1.2 3.5-1.2z"/>
		<path id="Path 2" class="s0" d="m257.8 270.3l-2.3 2.2c5.4 0.5 7.6 0 8.4-0.7 0.7-0.7 1-1.9 0.7-2.6-0.3-0.6-1.5-1.2-2.6-1.2-1.1 0-3 1-4.3 2.2zm52.2 0.3l-2.4 2.6c5.5 0 7.5-0.7 8.2-1.6 0.7-0.8 1.1-2 0.8-2.5-0.3-0.6-1.3-1-2.3-1-1 0-3 1.1-4.3 2.5zm-57.4 44.5c-0.3 0.5-0.1 2.1 0.5 3.5 0.6 1.6 1.6 2.3 2.5 2 0.9-0.3 1.5-1.7 1.5-3.5 0-2.3-0.4-3-2-3-1 0-2.1 0.4-2.5 1z"/>
	</g>
</svg>